#!OML:ASF F:\VICON\USERDATA\INSTALL\Justin_Nancy\Justin_Nancy.ASF
:FULLY-SPECIFIED
:DEGREES
227
root 0.463923 16.7671 20.5171 2.86928 4.85407 8.34717
lowerback 6.04044 -2.42042 -9.37103
upperback -0.296361 -3.85426 1.26179
thorax -3.00112 -1.76186 6.9
lowerneck -18.1803 -2.61895 -9.40779
upperneck 20.5744 -2.00345 4.4772
head 9.67001 -1.1623 2.85257
rclavicle 1.99779e-014 -9.54166e-015
rhumerus -47.9844 -28.879 -63.2491
rradius 20.5092
rwrist 18.4213
rhand -14.2683 11.6944
rfingers 7.12502
rthumb 11.8704 -17.9492
lclavicle 1.99779e-014 -9.54166e-015
lhumerus -20.3536 1.35617 83.9837
lradius 35.314
lwrist -5.71698
lhand -16.3468 26.924
lfingers 7.12502
lthumb 9.86563 56.6729
rfemur -33.8694 -0.663695 10.6187
rtibia 15.6372
rfoot -6.84445 -9.78497
rtoes -5.13386
lfemur 14.7953 -2.13752 -31.7446
ltibia 15.4347
lfoot -17.0878 -5.70167
ltoes -10.6059
228
root 0.439779 16.7508 20.7878 2.61215 4.92026 8.1225
lowerback 6.02562 -2.38713 -9.24369
upperback -0.195116 -3.79148 1.36162
thorax -2.89878 -1.74142 6.92541
lowerneck -18.1516 -2.68782 -9.60728
upperneck 20.569 -2.08375 4.64034
head 9.67328 -1.19681 2.93231
rclavicle 3.49861e-014 -1.03368e-014
rhumerus -48.6181 -29.1986 -62.5681
rradius 20.3832
rwrist 18.571
rhand -14.303 11.8691
rfingers 7.12502
rthumb 11.8369 -17.7763
lclavicle 3.49861e-014 -1.03368e-014
lhumerus -20.3107 1.6365 83.9536
lradius 35.6832
lwrist -5.44019
lhand -17.3992 25.338
lfingers 7.12502
lthumb 8.85011 55.1324
rfemur -33.9495 -1.39074 11.5565
rtibia 17.6118
rfoot -6.10854 -8.05768
rtoes -6.48617
lfemur 15.6355 -2.54453 -31.4444
ltibia 16.0222
lfoot -16.33 -5.88853
ltoes -12.8341
229
root 0.415394 16.7294 21.0647 2.42352 4.85382 7.83411
lowerback 5.8266 -2.35708 -9.07794
upperback -0.0837429 -3.71188 1.48263
thorax -2.68629 -1.71922 6.9389
lowerneck -18.3416 -2.67455 -9.79027
upperneck 20.7773 -2.05683 4.8944
head 9.7841 -1.17161 3.05992
rclavicle 2.28602e-015 1.90833e-014
rhumerus -49.1002 -29.3477 -62.1796
rradius 20.4974
rwrist 18.634
rhand -14.2354 11.2212
rfingers 7.12502
rthumb 11.9021 -18.4205
lclavicle 2.28602e-015 1.90833e-014
lhumerus -20.3307 1.89356 83.9285
lradius 36.059
lwrist -4.88611
lhand -17.488 26.0913
lfingers 7.12502
lthumb 8.76449 55.8893
rfemur -33.9921 -1.56793 12.3755
rtibia 19.4894
rfoot -5.22937 -6.84163
rtoes -10.1294
lfemur 16.3754 -2.90444 -31.1088
ltibia 16.8018
lfoot -15.4511 -6.05258
ltoes -14.6667
230
root 0.391303 16.7191 21.3461 2.14213 4.86853 7.5006
lowerback 5.61901 -2.38998 -8.89099
upperback 0.0799917 -3.71337 1.60363
thorax -2.40056 -1.7431 6.94245
lowerneck -18.3962 -2.52753 -9.65066
upperneck 20.9523 -1.87393 4.82874
head 9.83853 -1.08604 3.04183
rclavicle -3.00165e-014 -7.15625e-015
rhumerus -49.4589 -29.6555 -61.7617
rradius 20.4462
rwrist 18.7909
rhand -13.9972 10.8128
rfingers 7.12502
rthumb 12.1318 -18.8154
lclavicle -3.00165e-014 -7.15625e-015
lhumerus -20.239 2.26413 83.843
lradius 36.342
lwrist -4.20311
lhand -17.4227 27.5351
lfingers 7.12502
lthumb 8.82742 57.3305
rfemur -33.771 -1.16837 12.9484
rtibia 21.2993
rfoot -4.51834 -6.14142
rtoes -11.6273
lfemur 17.1169 -3.2341 -30.701
ltibia 17.6684
lfoot -14.3508 -6.37439
ltoes -16.3186
231
root 0.370412 16.7307 21.6157 1.99749 5.26155 7.3014
lowerback 5.7219 -2.50735 -8.68523
upperback -0.0281528 -3.86857 1.66115
thorax -2.5525 -1.81119 6.9055
lowerneck -18.1559 -2.41886 -9.31515
upperneck 21.045 -1.75365 4.44626
head 9.81084 -1.05176 2.86813
rclavicle 2.5345e-014 -2.46493e-014
rhumerus -50.0955 -29.8181 -61.0933
rradius 20.0997
rwrist 18.9806
rhand -14.0917 11.4399
rfingers 7.12502
rthumb 12.0407 -18.1937
lclavicle 2.5345e-014 -2.46493e-014
lhumerus -20.4033 2.63338 83.741
lradius 36.469
lwrist -3.81766
lhand -16.9821 27.8349
lfingers 7.12502
lthumb 9.25262 57.6119
rfemur -33.5392 -0.648089 13.026
rtibia 22.8245
rfoot -3.37046 -5.62043
rtoes -9.74916
lfemur 17.4198 -3.83917 -30.3929
ltibia 18.8998
lfoot -13.0085 -6.8459
ltoes -19.2058
232
root 0.342165 16.7634 21.879 1.95627 5.67277 6.92778
lowerback 5.96052 -2.61619 -8.40326
upperback -0.256262 -4.0189 1.84046
thorax -2.9045 -1.86335 6.96914
lowerneck -17.9654 -2.375 -9.16319
upperneck 21.1186 -1.66784 4.0819
head 9.79192 -1.04511 2.72642
rclavicle -5.24792e-014 -7.95139e-016
rhumerus -50.8329 -30.2425 -60.0069
rradius 19.5448
rwrist 19.8354
rhand -14.7174 12.644
rfingers 7.12502
rthumb 11.4373 -17.0241
lclavicle -5.24792e-014 -7.95139e-016
lhumerus -20.7732 2.81368 83.7539
lradius 36.5268
lwrist -3.16331
lhand -16.7339 27.6463
lfingers 7.12502
lthumb 9.4921 57.4125
rfemur -33.5375 0.21852 13.0421
rtibia 24.1672
rfoot -1.20209 -5.49908
rtoes -10.6733
lfemur 17.2765 -4.58782 -29.87
ltibia 20.4865
lfoot -11.0951 -7.37947
ltoes -22.1996
233
root 0.320349 16.7952 22.1536 1.85293 5.97419 6.62665
lowerback 6.02454 -2.6937 -8.11472
upperback -0.429903 -4.10933 1.96167
thorax -3.11702 -1.89576 6.95125
lowerneck -17.6233 -2.35506 -9.27057
upperneck 21.3157 -1.63017 4.01424
head 9.79702 -1.05113 2.72849
rclavicle 7.15625e-015 2.38542e-015
rhumerus -51.3511 -30.2859 -59.4824
rradius 19.4754
rwrist 19.9465
rhand -14.5411 11.8853
rfingers 7.12502
rthumb 11.6074 -17.7732
lclavicle 7.15625e-015 2.38542e-015
lhumerus -21.2154 3.05769 83.8015
lradius 36.5531
lwrist -2.47915
lhand -16.9831 26.6155
lfingers 7.12502
lthumb 9.25168 56.3925
rfemur -33.4004 0.645335 13.1684
rtibia 25.3235
rfoot 1.01789 -4.94072
rtoes -11.6679
lfemur 16.8472 -5.34615 -29.5088
ltibia 22.5419
lfoot -8.45693 -8.05682
ltoes -22.6768
